<svg width="1617" height="500" viewBox="0 0 1617 500" fill="none" xmlns="http://www.w3.org/2000/svg">
<path d="M428 264.545C428 249.551 430.671 236.453 436.014 225.25C441.528 214.047 448.939 205.43 458.245 199.398C467.723 193.366 478.236 190.349 489.782 190.349C499.778 190.349 508.394 192.331 515.633 196.295C522.871 200.259 528.472 205.602 532.435 212.324V192.159H583.102V337.19H532.435V317.026C528.472 323.747 522.784 329.09 515.374 333.054C508.136 337.018 499.605 339 489.782 339C478.236 339 467.723 335.984 458.245 329.952C448.939 323.92 441.528 315.302 436.014 304.099C430.671 292.724 428 279.54 428 264.545ZM532.435 264.545C532.435 255.239 529.85 247.914 524.68 242.571C519.682 237.228 513.478 234.557 506.068 234.557C498.485 234.557 492.195 237.228 487.197 242.571C482.199 247.741 479.701 255.066 479.701 264.545C479.701 273.852 482.199 281.263 487.197 286.778C492.195 292.121 498.485 294.793 506.068 294.793C513.478 294.793 519.682 292.121 524.68 286.778C529.85 281.436 532.435 274.025 532.435 264.545Z" fill="#112233"/>
<path d="M697.538 294.017V337.19H675.565C638.513 337.19 619.987 318.835 619.987 282.125V234.298H602.15V192.159H619.987V157H670.912V192.159H697.279V234.298H670.912V282.901C670.912 286.865 671.774 289.708 673.497 291.432C675.393 293.155 678.495 294.017 682.803 294.017H697.538Z" fill="#112233"/>
<path d="M859.335 262.994C859.335 266.958 859.076 270.922 858.559 274.886H762.654C763.171 282.814 765.326 288.76 769.117 292.724C773.081 296.516 778.078 298.412 784.11 298.412C792.555 298.412 798.586 294.62 802.205 287.037H856.233C853.992 297.033 849.598 305.995 843.049 313.923C836.672 321.679 828.573 327.797 818.75 332.278C808.926 336.759 798.069 339 786.178 339C771.874 339 759.122 335.984 747.92 329.952C736.89 323.92 728.187 315.302 721.811 304.099C715.607 292.897 712.505 279.712 712.505 264.545C712.505 249.379 715.607 236.28 721.811 225.25C728.015 214.047 736.632 205.43 747.661 199.398C758.863 193.366 771.702 190.349 786.178 190.349C800.482 190.349 813.149 193.279 824.178 199.139C835.208 204.999 843.824 213.444 850.028 224.474C856.233 235.332 859.335 248.172 859.335 262.994ZM807.634 250.327C807.634 244.122 805.566 239.296 801.43 235.849C797.294 232.23 792.124 230.42 785.92 230.42C779.716 230.42 774.632 232.144 770.668 235.591C766.704 238.866 764.119 243.777 762.913 250.327H807.634Z" fill="#112233"/>
<path d="M974.94 190.866C991.656 190.866 1004.93 196.468 1014.75 207.67C1024.57 218.701 1029.48 233.695 1029.48 252.653V337.19H978.817V259.375C978.817 251.102 976.663 244.639 972.355 239.986C968.047 235.16 962.273 232.747 955.035 232.747C947.452 232.747 941.507 235.16 937.199 239.986C932.89 244.639 930.736 251.102 930.736 259.375V337.19H880.069V192.159H930.736V212.841C935.217 206.292 941.248 201.035 948.831 197.071C956.414 192.935 965.117 190.866 974.94 190.866Z" fill="#112233"/>
<path d="M1049.01 264.545C1049.01 249.551 1051.68 236.453 1057.03 225.25C1062.54 214.047 1069.95 205.43 1079.26 199.398C1088.74 193.366 1099.25 190.349 1110.8 190.349C1120.79 190.349 1129.41 192.331 1136.65 196.295C1143.88 200.259 1149.48 205.602 1153.45 212.324V192.159H1204.11V337.19H1153.45V317.026C1149.48 323.747 1143.8 329.09 1136.39 333.054C1129.15 337.018 1120.62 339 1110.8 339C1099.25 339 1088.74 335.984 1079.26 329.952C1069.95 323.92 1062.54 315.302 1057.03 304.099C1051.68 292.724 1049.01 279.54 1049.01 264.545ZM1153.45 264.545C1153.45 255.239 1150.86 247.914 1145.69 242.571C1140.7 237.228 1134.49 234.557 1127.08 234.557C1119.5 234.557 1113.21 237.228 1108.21 242.571C1103.21 247.741 1100.71 255.066 1100.71 264.545C1100.71 273.852 1103.21 281.263 1108.21 286.778C1113.21 292.121 1119.5 294.793 1127.08 294.793C1134.49 294.793 1140.7 292.121 1145.69 286.778C1150.86 281.436 1153.45 274.025 1153.45 264.545Z" fill="#112233"/>
<path d="M1294.77 339C1281.67 339 1269.95 336.846 1259.61 332.537C1249.44 328.056 1241.34 322.024 1235.31 314.44C1229.45 306.685 1226.18 297.981 1225.49 288.33H1274.61C1275.29 292.983 1277.45 296.602 1281.07 299.187C1284.69 301.773 1289.17 303.065 1294.51 303.065C1298.65 303.065 1301.92 302.204 1304.33 300.48C1306.75 298.757 1307.95 296.516 1307.95 293.759C1307.95 290.139 1305.97 287.468 1302.01 285.744C1298.04 284.021 1291.49 282.125 1282.36 280.057C1272.02 277.989 1263.4 275.662 1256.51 273.077C1249.62 270.491 1243.59 266.269 1238.42 260.409C1233.42 254.549 1230.92 246.621 1230.92 236.625C1230.92 228.008 1233.25 220.252 1237.9 213.358C1242.55 206.292 1249.36 200.69 1258.32 196.554C1267.45 192.418 1278.4 190.349 1291.15 190.349C1310.11 190.349 1325.01 195.003 1335.87 204.31C1346.73 213.616 1353.02 225.853 1354.74 241.02H1308.99C1308.12 236.366 1306.06 232.833 1302.78 230.42C1299.68 227.835 1295.46 226.543 1290.12 226.543C1285.98 226.543 1282.79 227.318 1280.55 228.869C1278.48 230.42 1277.45 232.575 1277.45 235.332C1277.45 238.779 1279.43 241.451 1283.39 243.347C1287.36 245.07 1293.73 246.88 1302.52 248.776C1313.04 251.016 1321.74 253.515 1328.63 256.273C1335.7 259.03 1341.82 263.511 1346.99 269.716C1352.33 275.748 1355 284.021 1355 294.534C1355 302.979 1352.5 310.562 1347.5 317.284C1342.68 324.006 1335.7 329.348 1326.56 333.312C1317.6 337.104 1307 339 1294.77 339Z" fill="#112233"/>
<path d="M1477.94 246.268V335.207H1446.94V322.524C1444.32 326.541 1440.7 329.817 1436.09 332.354C1431.47 334.785 1426.18 336 1420.2 336C1409.92 336 1401.79 332.618 1395.81 325.854C1389.94 318.984 1387 309.683 1387 297.951V246.268H1417.68V293.988C1417.68 299.061 1418.99 303.077 1421.61 306.037C1424.34 308.89 1427.91 310.317 1432.31 310.317C1436.82 310.317 1440.39 308.89 1443.01 306.037C1445.63 303.077 1446.94 299.061 1446.94 293.988V246.268H1477.94Z" fill="#3AACFF"/>
<path d="M1511.06 238.024C1505.61 238.024 1501.2 236.545 1497.85 233.585C1494.6 230.52 1492.97 226.715 1492.97 222.171C1492.97 217.52 1494.6 213.663 1497.85 210.598C1501.2 207.533 1505.61 206 1511.06 206C1516.41 206 1520.71 207.533 1523.97 210.598C1527.32 213.663 1529 217.52 1529 222.171C1529 226.715 1527.32 230.52 1523.97 233.585C1520.71 236.545 1516.41 238.024 1511.06 238.024ZM1526.33 246.268V335.207H1495.49V246.268H1526.33Z" fill="#3AACFF"/>
<rect opacity="0.4" x="253.665" y="74" width="322.309" height="144.983" rx="72.4914" transform="rotate(62 253.665 74)" fill="url(#paint0_linear_1_20)"/>
<rect x="42" y="358.582" width="322.309" height="145.623" rx="72.8113" transform="rotate(-62 42 358.582)" fill="url(#paint1_linear_1_20)"/>
<defs>
<linearGradient id="paint0_linear_1_20" x1="331.486" y1="99.1897" x2="489.045" y2="196.988" gradientUnits="userSpaceOnUse">
<stop stop-color="#3AA1FF"/>
<stop offset="1" stop-color="#3AB8FF" stop-opacity="0.72"/>
</linearGradient>
<linearGradient id="paint1_linear_1_20" x1="119.821" y1="383.883" x2="277.766" y2="481.489" gradientUnits="userSpaceOnUse">
<stop stop-color="#3AACFF"/>
<stop offset="1" stop-color="#3AB8FF" stop-opacity="0.72"/>
</linearGradient>
</defs>
</svg>
