<svg width="639" height="540" viewBox="0 0 639 540" fill="none" xmlns="http://www.w3.org/2000/svg">
<path d="M329.686 381.699L390.304 477.012C390.254 477.012 390.254 477.012 390.254 477.012C390.304 477.012 390.304 477.012 390.304 477.012C430.154 539.74 513.348 558.227 575.992 518.369C638.715 478.519 657.269 395.431 617.37 332.637C577.513 269.964 494.411 251.485 431.671 291.317H431.629L336.324 351.885C326.284 358.279 323.335 371.663 329.686 381.699Z" fill="#008CFF"/>
<path d="M308.918 308.692L404.227 248.137C466.963 208.224 485.501 125.077 445.597 62.3874C405.748 -0.340626 322.605 -18.8366 259.865 21.0124C197.188 60.8704 178.687 144.013 218.537 206.707C218.537 206.749 218.537 206.749 218.537 206.749L279.109 302.041C285.506 312.116 298.836 315.082 308.918 308.692Z" fill="#FBB040"/>
<path d="M308.581 425.169L248.454 329.52C248.496 329.583 248.496 329.583 248.496 329.583C248.496 329.52 248.496 329.52 248.496 329.52C208.941 266.612 125.89 247.662 62.9612 287.213C0.0872459 326.718 -18.9087 409.769 20.6463 472.707C60.1643 535.577 143.21 554.519 206.144 515.014L301.793 454.883C311.875 448.555 314.925 435.21 308.581 425.169Z" fill="#00D1B2"/>
</svg>
